<?xml version="1.0" standalone="no"?><!DOCTYPE svg PUBLIC "-//W3C//DTD SVG 1.1//EN" "http://www.w3.org/Graphics/SVG/1.1/DTD/svg11.dtd"><svg class="icon" width="200px" height="200.00px" viewBox="0 0 1024 1024" version="1.1" xmlns="http://www.w3.org/2000/svg"><path d="M301.075 781.209c-6.792 0-13.595 0.236-20.375-0.041-25.989-1.055-44.234-24.937-35.349-49.255 7.775-21.281 19.541-41.078 28.645-61.922 2.632-6.027 4.148-13.834 2.815-20.113-33.537-158.041-67.522-315.986-101.455-473.942-0.669-3.113-1.671-6.152-2.732-10-39.693 0-79.318 0.58-118.902-0.429-9.291-0.237-19.617-4.109-27.397-9.37-13.162-8.9-17.071-24.977-12.482-39.559 4.896-15.548 18.421-27.162 34.415-27.285 52.863-0.405 105.735-0.472 158.598 0.036 14.689 0.14 26.592 7.739 31.62 21.884 4.92 13.844 7.728 28.445 11.361 42.739 0.962 3.785 1.552 7.666 2.408 11.985 5.665 0 10.444 0 15.224 0 232.298 0 464.595-0.003 696.891 0.003 33.652 0.001 47.629 13.833 47.631 47.097 0.007 97.324 0.021 194.649-0.006 291.974-0.008 29.145-11.438 42.6-40.653 46.07-94.977 11.289-190.003 22.156-285 33.267-92.613 10.831-185.215 21.764-277.821 32.644-18.952 2.228-37.91 4.428-58.95 6.883 10.075 27.901 12.384 54.351-7.099 80.444 8.069 0 12.757 0 17.443 0 175.825 0 351.65-0.01 527.473 0.04 5.987 0.001 12.145-0.211 17.924 1.04 17.909 3.881 30.882 21.756 29.68 39.944-1.227 18.544-17.121 34.526-35.984 35.725-7.474 0.473-15 0.077-24.416 0.077 49.237 22.268 68.029 54.002 58.16 95.826-8.215 34.812-41.442 59.403-78.354 57.987-36.014-1.381-66.511-28.92-72.388-65.366-6.19-38.403 15.927-71.705 59.859-87.551-169.382 0-336.511 0-504.254 0 45.699 19.256 65.783 51.585 57.411 91.684-7.621 36.494-39.504 61.908-76.901 61.296-36.798-0.602-67.839-27.559-74.317-64.539C237.056 831.999 258.466 799.265 301.075 781.209z" /></svg>