<?xml version="1.0" standalone="no"?><!DOCTYPE svg PUBLIC "-//W3C//DTD SVG 1.1//EN" "http://www.w3.org/Graphics/SVG/1.1/DTD/svg11.dtd"><svg class="icon" width="200px" height="198.64px" viewBox="0 0 1031 1024" version="1.1" xmlns="http://www.w3.org/2000/svg"><path d="M1016.720766 271.616c-6.272-7.68-15.744-12.16-25.664-12.16L226.128766 259.456 178.512766 90.368C174.608766 76.544 162.192766 66.88 147.728766 66.432L34.064766 62.976C15.888766 62.08 0.592766 76.608 0.016766 94.656s13.76 33.216 32.064 33.792L121.424766 131.136l177.088 628.288c0 0.192 0.128 0.32 0.192 0.448 1.024 3.328 2.496 6.464 4.352 9.216 0.128 0.256 0.32 0.448 0.512 0.704 1.856 2.688 4.16 4.992 6.72 6.912 0.192 0.192 0.448 0.32 0.64 0.448 2.688 1.856 5.504 3.456 8.64 4.48 0.192 0.064 0.384 0.128 0.576 0.128 3.136 1.024 6.4 1.536 9.856 1.6 0.064 0 0.128 0.064 0.192 0.064 0.064 0 0.064 0 0.128 0l561.472 0c15.552 0 29.056-10.816 32.32-25.92l99.072-458.496C1025.360766 289.344 1022.992766 279.296 1016.720766 271.616L1016.720766 271.616 1016.720766 271.616zM950.096766 324.928l-24.768 114.688c-0.192 0-0.256-0.064-0.384-0.064L285.904766 439.552 257.040766 324.928 950.096766 324.928 950.096766 324.928 950.096766 324.928zM897.040766 570.496 318.992766 570.496 302.416766 505.024l608.768 0L897.040766 570.496 897.040766 570.496 897.040766 570.496zM356.112766 717.952 335.504766 636.096l547.392 0-17.6 81.856L356.112766 717.952 356.112766 717.952 356.112766 717.952zM454.864766 816.128c-39.232 0-71.104 32.448-71.104 72.512C383.824766 928.64 415.632766 961.088 454.864766 961.088s71.04-32.448 71.04-72.448C525.904766 848.576 494.096766 816.128 454.864766 816.128M787.792766 816.128c-39.232 0-71.104 32.448-71.104 72.512 0 40 31.808 72.448 71.104 72.448s71.104-32.448 71.104-72.448C858.832766 848.576 827.024766 816.128 787.792766 816.128" /></svg>