<?xml version="1.0" standalone="no"?><!DOCTYPE svg PUBLIC "-//W3C//DTD SVG 1.1//EN" "http://www.w3.org/Graphics/SVG/1.1/DTD/svg11.dtd"><svg class="icon" width="200px" height="200.00px" viewBox="0 0 1024 1024" version="1.1" xmlns="http://www.w3.org/2000/svg"><path d="M511.273453 956.88851c-245.281379 0-444.122053-198.838627-444.122053-444.1241 0-245.277286 198.840674-444.11796 444.122053-444.11796s444.122053 198.840674 444.122053 444.11796C955.395506 758.049882 756.554832 956.88851 511.273453 956.88851zM511.273453 135.142933c-208.555943 0-377.620453 169.071673-377.620453 377.620453 0 208.560036 169.065534 377.624547 377.620453 377.624547 208.553896 0 377.620453-169.065534 377.620453-377.624547C888.893906 304.214606 719.826326 135.142933 511.273453 135.142933zM397.742746 404.072919c52.089355-21.246907 297.199843-121.228015 301.404608-122.966613 10.903328-3.391237 38.749536 20.809955 33.726126 28.568662-3.139503 4.690836-102.942557 252.92343-124.056434 305.47225l-1.967818 4.89959-4.990664 1.973958c-52.31039 20.688181-297.519114 117.732401-302.20688 120.870882-7.754614 5.021364-35.18536-19.59836-31.791054-30.501688 1.741667-4.200672 101.719706-249.313206 122.966613-301.402561l2.003634-4.91187L397.742746 404.072919zM664.240333 349.629959c-3.950985 1.638313-165.388794 75.019601-217.203904 98.578156l0 0c0 0-115.579365 222.856647-117.52467 227.555669-3.393283 10.907421-4.01443 7.480368 3.742231 2.459005 5.246491-3.51301 236.412384-107.382683 236.412384-107.382683l1.845021-3.515057c23.986297-50.901297 92.236727-209.546503 95.182826-213.948767C671.718655 345.621669 675.143661 346.239745 664.240333 349.629959zM478.064097 539.814486c-15.646352-15.644305-15.646352-41.011043 0-56.655348 15.646352-15.646352 41.011043-15.646352 56.655348 0 15.646352 15.644305 15.646352 41.011043 0 56.655348C519.075139 555.455721 493.710448 555.455721 478.064097 539.814486z" /></svg>