<?xml version="1.0" standalone="no"?><!DOCTYPE svg PUBLIC "-//W3C//DTD SVG 1.1//EN" "http://www.w3.org/Graphics/SVG/1.1/DTD/svg11.dtd"><svg class="icon" width="200px" height="199.80px" viewBox="0 0 1025 1024" version="1.1" xmlns="http://www.w3.org/2000/svg"><path d="M111.345001 311.673c0 29.68 10.004 56.831 26.38 79.003-2.521-11.129-4.12-22.596-4.12-34.483 0-86.054 69.759-155.813 155.809-155.813 11.89 0 23.354 1.6 34.48 4.122-22.172-16.375-49.32-26.378-78.997-26.378C171.137001 178.124 111.345001 237.917 111.345001 311.673z"  /><path d="M769.636001 70.859c-99.675 0-203.088 62.127-257.875 190.547C455.015001 129.248 353.026001 66.859 254.970001 66.839c-0.014 0-0.026 0.003-0.042 0.003l0.031 44.517c148.209 0.031 256.932 230.862 256.932 230.862s108.194-226.842 257.745-226.842c54.767 0 105.596 22.757 143.137 64.08 43.649 48.036 66.709 117.705 66.709 201.433 0 284.842-379.7 484.955-466.981 527.166C424.963001 865.952 44.516001 666.54 44.516001 383.025c0-84.817 23.212-155.855 67.133-205.417 37.878-42.732 88.763-66.25 143.279-66.25L254.928001 66.842C123.947001 66.846-0.010999 178.113 1.0e-06 383.025c0 351.637 512.543 574.136 512.543 574.136S1024.000001 734.662 1024.000001 380.892C1024.011001 177.284 900.036001 70.859 769.636001 70.859z"  /></svg>