<?xml version="1.0" standalone="no"?><!DOCTYPE svg PUBLIC "-//W3C//DTD SVG 1.1//EN" "http://www.w3.org/Graphics/SVG/1.1/DTD/svg11.dtd"><svg t="1504053128536" class="icon" style="" viewBox="0 0 1024 1024" version="1.1" xmlns="http://www.w3.org/2000/svg" p-id="2401" xmlns:xlink="http://www.w3.org/1999/xlink" width="200" height="200"><defs><style type="text/css"></style></defs><path d="M511.706311 0.059352c-282.59624 0-511.684822 229.089605-511.684822 511.684822s229.089605 511.684822 511.684822 511.684822 511.684822-229.089605 511.684822-511.684822S794.302551 0.059352 511.706311 0.059352zM511.706311 975.45947c-256.102842 0-463.715297-207.612455-463.715297-463.715297S255.603469 48.0299 511.706311 48.0299s463.715297 207.612455 463.715297 463.715297S767.809153 975.45947 511.706311 975.45947z" p-id="2402" fill="#d81e06"></path><path d="M715.227588 308.22392c-18.733667-18.733667-49.106418-18.733667-67.840084 0L511.706311 443.904089 376.025119 308.22392c-18.733667-18.733667-49.106418-18.733667-67.840084 0s-18.733667 49.106418 0 67.840084l135.681192 135.681192L308.185035 647.426389c-18.733667 18.733667-18.733667 49.106418 0 67.840084s49.106418 18.733667 67.840084 0l135.681192-135.681192 135.681192 135.681192c18.733667 18.733667 49.106418 18.733667 67.840084 0s18.733667-49.106418 0-67.840084L579.546396 511.745197l135.681192-135.681192C733.961254 357.330338 733.961254 326.957587 715.227588 308.22392z" p-id="2403" fill="#d81e06"></path></svg>