<?xml version="1.0" standalone="no"?><!DOCTYPE svg PUBLIC "-//W3C//DTD SVG 1.1//EN" "http://www.w3.org/Graphics/SVG/1.1/DTD/svg11.dtd"><svg class="icon" width="200px" height="200.00px" viewBox="0 0 1024 1024" version="1.1" xmlns="http://www.w3.org/2000/svg"><path d="M512.342016 34.019328c-148.642816 0-269.563904 120.922112-269.563904 269.564928 0 107.645952 63.568896 200.485888 155.005952 243.656704-169.043968 49.646592-292.929536 205.93152-292.929536 390.81984 0 11.77088 9.535488 21.29408 21.293056 21.29408 11.759616 0 21.295104-9.5232 21.295104-21.29408 0-201.21088 163.708928-364.908544 364.899328-364.908544 148.641792 0 269.568-120.925184 269.568-269.568C781.910016 154.94144 660.984832 34.019328 512.342016 34.019328zM512.342016 530.562048c-125.16352 0-226.975744-101.823488-226.975744-226.978816 0-125.15328 101.812224-226.975744 226.975744-226.975744 125.165568 0 226.97984 101.822464 226.97984 226.975744C739.32288 428.739584 637.508608 530.562048 512.342016 530.562048z"  /><path d="M759.512064 614.052864c-9.358336-7.131136-22.709248-5.364736-29.840384 3.992576-7.15264 9.356288-5.364736 22.7072 3.991552 29.860864 91.24864 69.728256 143.56992 175.490048 143.56992 290.153472 0 11.77088 9.542656 21.29408 21.29408 21.29408 11.768832 0 21.293056-9.5232 21.293056-21.29408C919.821312 810.006528 861.3888 691.909632 759.512064 614.052864z"  /></svg>