<?xml version="1.0" standalone="no"?><!DOCTYPE svg PUBLIC "-//W3C//DTD SVG 1.1//EN" "http://www.w3.org/Graphics/SVG/1.1/DTD/svg11.dtd"><svg t="1504229557812" class="icon" style="" viewBox="0 0 1024 1024" version="1.1" xmlns="http://www.w3.org/2000/svg" p-id="2490" xmlns:xlink="http://www.w3.org/1999/xlink" width="200" height="200"><defs><style type="text/css"></style></defs><path d="M921.711336 64.303538 102.287641 64.303538c-20.938891 0-37.985126 18.284435-37.985126 40.744983l0 92.6614c0 22.459524 17.045211 40.744983 37.985126 40.744983l6.716982 0 0 105.686041 0 0.01228 0 563.470255c0 28.711925 21.778003 52.074006 48.544623 52.074006l259.580037 0 191.615109 0 257.70534 0c26.76662 0 48.544623-23.362081 48.544623-52.074006L914.994354 383.117654l0-76.016301L914.994354 238.45388l6.716982 0c20.938891 0 37.985126-18.284435 37.985126-40.744983L959.696462 105.048521C959.696462 82.587973 942.65125 64.303538 921.711336 64.303538zM398.440641 919.603325 157.549246 919.603325c-6.15621 0-11.169387-5.376451-11.169387-11.980869L146.379858 779.24153l252.059759 0L398.439618 919.603325zM590.05575 919.603325 435.8169 919.603325 435.8169 555.771923c0-2.049682 1.545192-3.706415 3.455705-3.706415l147.328463 0c1.910513 0 3.455705 1.657756 3.455705 3.706415L590.056774 919.603325zM877.619118 907.622456c0 6.604418-5.013177 11.980869-11.169387 11.980869L627.432009 919.603325 627.432009 792.606932l250.187109 0L877.619118 907.622456zM877.619118 752.513796 627.432009 752.513796 627.432009 555.771923c0-24.157189-18.311041-43.798529-40.831964-43.798529L439.272605 511.973394c-22.5199 0-40.831964 19.641339-40.831964 43.798529l0 183.378517L146.379858 739.15044 146.379858 418.229337c0.339738 0.240477 0.725524 0.407276 1.068332 0.64059 2.518357 1.716084 5.129834 3.272533 7.820106 4.692882 0.779759 0.411369 1.552356 0.827855 2.344395 1.214664 3.167133 1.540076 6.408967 2.925632 9.772574 4.031826 0.341784 0.113587 0.697895 0.180102 1.040702 0.288572 3.066849 0.961908 6.217608 1.699712 9.41851 2.275833 0.930185 0.170892 1.854231 0.326435 2.792603 0.460488 3.584642 0.512676 7.215332 0.867764 10.92891 0.867764 3.213181 0 6.384407-0.198521 9.503445-0.583285 21.834284-2.695389 41.108257-14.566764 54.373375-31.912827 13.253862 17.346063 32.526811 29.217439 54.359049 31.912827 3.119037 0.384763 6.290263 0.583285 9.503445 0.583285s6.384407-0.198521 9.503445-0.583285c21.833261-2.695389 41.107233-14.566764 54.371328-31.912827 13.265118 17.346063 32.53909 29.217439 54.371328 31.912827 3.120061 0.384763 6.290263 0.583285 9.505491 0.583285 3.213181 0 6.384407-0.198521 9.503445-0.583285 21.833261-2.695389 41.10621-14.566764 54.371328-31.912827 13.265118 17.346063 32.537044 29.217439 54.371328 31.912827 3.119037 0.384763 6.290263 0.583285 9.503445 0.583285s6.384407-0.198521 9.503445-0.583285c21.834284-2.695389 41.105187-14.566764 54.359049-31.912827 13.265118 17.346063 32.53909 29.217439 54.373375 31.912827 3.119037 0.384763 6.290263 0.583285 9.503445 0.583285s6.384407-0.198521 9.503445-0.583285c21.833261-2.695389 41.10621-14.566764 54.371328-31.912827 13.265118 17.346063 32.537044 29.217439 54.371328 31.912827 3.119037 0.384763 6.290263 0.583285 9.503445 0.583285 3.920286 0 7.746428-0.396019 11.521404-0.964978 0.88823-0.134053 1.769296-0.272199 2.648316-0.434905 3.673669-0.685615 7.284917-1.562589 10.778484-2.75474 0.394996-0.13303 0.765433-0.315178 1.157359-0.456395 3.200902-1.146103 6.294356-2.524496 9.30697-4.068665 0.737804-0.378623 1.475608-0.740874 2.201132-1.13894 3.216251-1.77646 6.321986-3.738138 9.277294-5.934153 0.135076-0.101307 0.290619-0.173962 0.427742-0.274246L877.614002 752.513796zM146.379858 344.139921 146.379858 240.254899l90.375334 0 0 103.885022c0 20.045545-11.401678 37.288255-27.614941 44.656059-5.40408 2.454912-11.342326 3.814886-17.573237 3.814886-6.228865 0-12.168134-1.358951-17.573237-3.814886C157.782559 381.427152 146.379858 364.185466 146.379858 344.139921zM274.132474 344.139921 274.132474 240.254899l90.363054 0 0 103.885022c0 20.045545-11.401678 37.288255-27.614941 44.656059-5.405103 2.454912-11.344373 3.814886-17.573237 3.814886-6.225795 0-12.161994-1.358951-17.566074-3.814886C285.534152 381.427152 274.132474 364.185466 274.132474 344.139921zM401.87281 344.139921 401.87281 240.254899l90.37431 0 0 103.885022c0 20.045545-11.401678 37.288255-27.614941 44.656059-5.403057 2.454912-11.342326 3.814886-17.571191 3.814886-6.229888 0-12.169157-1.358951-17.573237-3.814886C413.273465 381.427152 401.87281 364.185466 401.87281 344.139921zM529.623379 344.139921 529.623379 240.254899l90.363054 0 0 103.885022c0 20.045545-11.401678 37.288255-27.609825 44.656059-5.403057 2.454912-11.340279 3.814886-17.566074 3.814886-6.228865 0-12.168134-1.358951-17.573237-3.814886C541.025057 381.427152 529.623379 364.185466 529.623379 344.139921zM657.362692 344.139921 657.362692 240.254899l90.375334 0 0 103.885022c0 20.045545-11.402701 37.288255-27.614941 44.656059-5.405103 2.454912-11.344373 3.814886-17.573237 3.814886-6.229888 0-12.169157-1.358951-17.573237-3.814886C668.76437 381.427152 657.362692 364.185466 657.362692 344.139921zM785.114285 344.139921 785.114285 240.254899l90.375334 0 0 55.127552 0 48.75747c0 20.045545-11.401678 37.288255-27.614941 44.656059-5.40408 2.454912-11.342326 3.814886-17.573237 3.814886-6.228865 0-12.168134-1.358951-17.573237-3.814886C796.516985 381.427152 785.114285 364.185466 785.114285 344.139921zM922.31918 197.708897c0 0.364297-0.268106 0.651846-0.607844 0.651846l-820.031539-0.651846 0.607844-93.314269 820.031539 0.652869L922.31918 197.708897z" p-id="2491" fill="#515151"></path></svg>