<?xml version="1.0" standalone="no"?><!DOCTYPE svg PUBLIC "-//W3C//DTD SVG 1.1//EN" "http://www.w3.org/Graphics/SVG/1.1/DTD/svg11.dtd"><svg t="1507704509004" class="icon" style="" viewBox="0 0 1024 1024" version="1.1" xmlns="http://www.w3.org/2000/svg" p-id="3751" xmlns:xlink="http://www.w3.org/1999/xlink" width="30" height="50"><defs><style type="text/css"></style></defs><path d="M824.087273 382.836364h-1.629091V311.435636c0.465455-6.702545 0.744727-13.265455 0.744727-19.781818 0-77.963636-32.581818-151.179636-91.601454-206.336C672.581818 30.301091 594.013091 0 510.464 0 426.914909 0 348.346182 30.301091 289.326545 85.457455 230.306909 140.613818 197.725091 213.829818 197.725091 291.84v91.042909h2.187636C115.339636 382.836364 46.545455 447.022545 46.545455 525.777455v355.281454C46.545455 959.953455 115.339636 1024 199.912727 1024h624.174546C908.660364 1024 977.454545 959.813818 977.454545 881.058909v-355.281454c0-78.894545-68.794182-142.894545-153.367272-142.894546zM268.101818 291.607273c0-124.648727 108.683636-225.931636 242.315637-225.931637 133.678545 0 242.315636 101.469091 242.315636 225.978182 0 5.306182-0.139636 10.752-0.558546 16.244364l-0.139636 1.070545V382.603636H268.101818V291.653818z m502.784 321.163636l-295.098182 267.450182a36.072727 36.072727 0 0 1-48.500363-0.651636L284.392727 741.655273a30.626909 30.626909 0 0 1 0.744728-45.335273 35.84 35.84 0 0 1 48.360727 0.698182l119.156363 114.827636 270.429091-245.108363a35.84 35.84 0 0 1 48.314182 0.698181c13.451636 12.846545 13.032727 33.047273-0.465454 45.335273z" p-id="3752"></path></svg>