<?xml version="1.0" standalone="no"?><!DOCTYPE svg PUBLIC "-//W3C//DTD SVG 1.1//EN" "http://www.w3.org/Graphics/SVG/1.1/DTD/svg11.dtd"><svg t="1507703346009" class="icon" style="" viewBox="0 0 1024 1024" version="1.1" xmlns="http://www.w3.org/2000/svg" p-id="3047" xmlns:xlink="http://www.w3.org/1999/xlink" width="50" height="50"><defs><style type="text/css"></style></defs><path d="M749.380944 391.543557l-63.376423 0c0-101.790314-77.69657-179.5227-176.889733-179.5227-99.206466 0-176.889733 77.732385-176.889733 179.5227l-63.365166 0c0-122.135688 107.767446-242.900146 240.254899-242.900146C641.589962 148.643412 749.380944 269.407869 749.380944 391.543557L749.380944 391.543557zM749.380944 391.543557" p-id="3048"></path><path d="M786.815531 495.636311c0-34.996049-28.369118-63.376423-63.364143-63.376423l-422.901753 0c-34.983769 0-63.365166 28.380374-63.365166 63.376423l0 300.776298c0 34.972513 28.381397 63.340607 63.365166 63.340607l422.913009 0c34.984792 0 63.352887-28.369118 63.352887-63.365166L786.815531 495.636311 786.815531 495.636311zM562.888506 730.795145c0 26.26213-21.264303 47.537689-47.527456 47.537689l-6.748704 0c-26.225291 0-47.501874-21.275559-47.501874-47.537689L461.110471 601.922009c0-26.249851 21.276582-47.514153 47.52541-47.514153l6.750751 0c26.237571 0 47.501874 21.263279 47.501874 47.52541L562.888506 730.795145 562.888506 730.795145zM562.888506 730.795145" p-id="3049"></path></svg>