<?xml version="1.0" standalone="no"?><!DOCTYPE svg PUBLIC "-//W3C//DTD SVG 1.1//EN" "http://www.w3.org/Graphics/SVG/1.1/DTD/svg11.dtd"><svg t="1505787371598" class="icon" style="" viewBox="0 0 1497 1024" version="1.1" xmlns="http://www.w3.org/2000/svg" p-id="3244" xmlns:xlink="http://www.w3.org/1999/xlink" width="292.3828125" height="200"><defs><style type="text/css"></style></defs><path d="M468.446429 246.25c-98.125 98.125-98.125 259.625 0 360.625 98.125 98.125 259.625 98.125 360.625 0C927.071429 508.75 927.071429 347.25 828.946429 246.25c-100.875-98-259.625-98-360.5 0z" fill="#F09EC2" p-id="3245"></path><path d="M564.071429 0C280.196429 0 52.071429 228.125 52.071429 512S280.196429 1024 564.071429 1024s512-228.125 512-512S847.946429 0 564.071429 0z m308.25 650.125c-115.375 115.375-300 124-426.875 20.25l-46.125 46.125 112.5 112.5c11.5 11.5 11.5 31.75 0 46.125s-31.75 11.5-46.125 0l-112.5-112.5-63.625 69.25c-11.5 11.5-31.75 11.5-46.125 0-11.5-11.5-11.5-31.75 0-46.125l66.375-66.375-112.5-112.5c-11.5-11.5-11.5-31.75 0-46.125 11.5-11.5 31.75-11.5 46.125 0l112.5 112.5 46.125-46.125c-101-124-95.25-308.625 20.25-426.875 124-124 326-124 450 0 124 126.75 124 325.875 0 449.875z" fill="#F09EC2" p-id="3246"></path></svg>