<?xml version="1.0" standalone="no"?><!DOCTYPE svg PUBLIC "-//W3C//DTD SVG 1.1//EN" "http://www.w3.org/Graphics/SVG/1.1/DTD/svg11.dtd"><svg t="1508136052363" class="icon" style="" viewBox="0 0 1024 1024" version="1.1" xmlns="http://www.w3.org/2000/svg" p-id="16128" xmlns:xlink="http://www.w3.org/1999/xlink" width="200" height="200"><defs><style type="text/css"></style></defs><path d="M997.508 359.046c-16.372-45.872-101.288-54.406-172.981-52.988-46.152-77.315-120.566-137.815-213.572-164.143-32.407-9.17-65.756-13.826-99.118-13.826-162.419 0-306.636 109.744-350.726 266.864-8.796 31.323-13.35 63.164-13.79 94.856-25.754 14.433-47.978 28.853-66.116 42.934-47.438 36.81-65.588 69.975-53.976 98.584 16.346 40.25 85.666 51.345 157.141 51.345 4.978 0 9.967-0.054 14.949-0.156 47.963 80.48 123.48 138.567 213.764 164.125 32.406 9.176 65.762 13.828 99.136 13.828 162.39 0 306.612-109.725 350.72-266.847 8.879-31.631 13.312-63.485 13.683-94.884 25.48-14.241 47.82-28.635 66.215-42.913 46.353-35.975 64.748-68.531 54.67-96.779z m-944.4 261.687c-6.034-14.853 10.43-38.826 45.177-65.784 14.048-10.901 30.797-22.084 49.978-33.376 3.378 45.81 15.449 90.822 35.965 132.987-80.395-0.146-123.459-14.968-131.12-33.827z m782.947-34.72c-40.735 145.082-173.9 246.402-323.836 246.402-30.807 0-61.607-4.298-91.553-12.777-78.37-22.18-144.697-70.906-189.157-138.4 24.02-1.38 46.974-3.594 66.79-5.922 186.257-21.86 406.518-88.247 549.824-161.372a339.398 339.398 0 0 1-12.068 72.07zM295.058 647.45c-29.294 3.438-55.863 5.53-79.765 6.489-41.4-77.494-51.13-166.5-27.293-251.373 40.711-145.082 173.882-246.417 323.836-246.417 30.796 0 61.595 4.298 91.529 12.777 144.185 40.814 239.966 170.55 245.108 313.4-139.08 74.166-363.853 142.871-553.415 165.124z m630.7-213.82c-14.35 11.136-31.197 22.347-50.132 33.499-3.507-46.698-15.943-91.85-36.022-133.164 87.4 0.041 125.467 17.374 131.6 34.549 5.287 14.855-11.273 38.58-45.447 65.116z m-449.88-204.703a262.776 262.776 0 0 0-19.081 3.51 266.105 266.105 0 0 0-26.895 7.493c-2.442 0.821-3.75 3.474-2.944 5.921 0.818 2.456 3.47 3.78 5.905 2.947a256.47 256.47 0 0 1 25.952-7.23 257.652 257.652 0 0 1 18.412-3.395c97.644-14.285 193.257 27.329 249.472 108.727 13.648 19.75 24.46 41.183 32.155 63.715a4.658 4.658 0 0 0 5.912 2.907c2.44-0.838 3.73-3.5 2.895-5.94-7.97-23.351-19.177-45.557-33.303-66.013-58.24-84.328-157.248-127.518-258.48-112.642z" p-id="16129"></path></svg>